{
  "accessors": [
    {
      "bufferView": 2,
      "componentType": 5126,
      "count": 321,
      "max": [
        34.973445892333984,
        0.0,
        34.973445892333984
      ],
      "min": [
        -34.973445892333984,
        0.0,
        -34.973445892333984
      ],
      "type": "VEC3"
    },
    {
      "bufferView": 2,
      "byteOffset": 3852,
      "componentType": 5126,
      "count": 321,
      "max": [
        0.0,
        1.0,
        -0.0
      ],
      "min": [
        0.0,
        1.0,
        -0.0
      ],
      "type": "VEC3"
    },
    {
      "bufferView": 1,
      "componentType": 5126,
      "count": 321,
      "max": [
        1.0,
        1.0
      ],
      "min": [
        0.0,
        0.0
      ],
      "type": "VEC2"
    },
    {
      "bufferView": 1,
      "byteOffset": 2568,
      "componentType": 5126,
      "count": 321,
      "max": [
        1.0,
        1.0
      ],
      "min": [
        0.0,
        0.0
      ],
      "type": "VEC2"
    },
    {
      "bufferView": 1,
      "byteOffset": 5136,
      "componentType": 5126,
      "count": 321,
      "max": [
        1.0,
        1.0
      ],
      "min": [
        0.0,
        0.0
      ],
      "type": "VEC2"
    },
    {
      "bufferView": 1,
      "byteOffset": 7704,
      "componentType": 5126,
      "count": 321,
      "max": [
        1.0,
        1.0
      ],
      "min": [
        0.0,
        0.0
      ],
      "type": "VEC2"
    },
    {
      "bufferView": 1,
      "byteOffset": 10272,
      "componentType": 5126,
      "count": 321,
      "max": [
        1.0,
        1.0
      ],
      "min": [
        0.0,
        0.0
      ],
      "type": "VEC2"
    },
    {
      "bufferView": 1,
      "byteOffset": 12840,
      "componentType": 5126,
      "count": 321,
      "max": [
        1.0,
        1.0
      ],
      "min": [
        0.0,
        0.0
      ],
      "type": "VEC2"
    },
    {
      "bufferView": 1,
      "byteOffset": 15408,
      "componentType": 5126,
      "count": 321,
      "max": [
        1.0,
        1.0
      ],
      "min": [
        0.0,
        0.0
      ],
      "type": "VEC2"
    },
    {
      "bufferView": 1,
      "byteOffset": 17976,
      "componentType": 5126,
      "count": 321,
      "max": [
        1.0,
        1.0
      ],
      "min": [
        0.0,
        0.0
      ],
      "type": "VEC2"
    },
    {
      "bufferView": 1,
      "byteOffset": 20544,
      "componentType": 5126,
      "count": 321,
      "max": [
        1.0,
        1.0
      ],
      "min": [
        0.0,
        0.0
      ],
      "type": "VEC2"
    },
    {
      "bufferView": 1,
      "byteOffset": 23112,
      "componentType": 5126,
      "count": 321,
      "max": [
        1.0,
        1.0
      ],
      "min": [
        0.0,
        0.0
      ],
      "type": "VEC2"
    },
    {
      "bufferView": 0,
      "componentType": 5125,
      "count": 1680,
      "type": "SCALAR"
    },
    {
      "bufferView": 2,
      "byteOffset": 7704,
      "componentType": 5126,
      "count": 2326,
      "max": [
        53.980499267578125,
        4.7217535972595215,
        0.13855469226837158
      ],
      "min": [
        -5.119500160217285,
        -4.650000095367432,
        -0.0
      ],
      "type": "VEC3"
    },
    {
      "bufferView": 2,
      "byteOffset": 35616,
      "componentType": 5126,
      "count": 2326,
      "max": [
        1.0,
        1.0,
        1.0
      ],
      "min": [
        -1.0,
        -1.0,
        -1.0
      ],
      "type": "VEC3"
    },
    {
      "bufferView": 1,
      "byteOffset": 25680,
      "componentType": 5126,
      "count": 2326,
      "max": [
        1.0,
        0.9520379900932312
      ],
      "min": [
        0.0,
        0.010161995887756348
      ],
      "type": "VEC2"
    },
    {
      "bufferView": 1,
      "byteOffset": 44288,
      "componentType": 5126,
      "count": 2326,
      "max": [
        1.0,
        0.9520379900932312
      ],
      "min": [
        0.0,
        0.010161995887756348
      ],
      "type": "VEC2"
    },
    {
      "bufferView": 1,
      "byteOffset": 62896,
      "componentType": 5126,
      "count": 2326,
      "max": [
        1.0,
        0.9520379900932312
      ],
      "min": [
        0.0,
        0.010161995887756348
      ],
      "type": "VEC2"
    },
    {
      "bufferView": 1,
      "byteOffset": 81504,
      "componentType": 5126,
      "count": 2326,
      "max": [
        1.0,
        0.9520379900932312
      ],
      "min": [
        0.0,
        0.010161995887756348
      ],
      "type": "VEC2"
    },
    {
      "bufferView": 1,
      "byteOffset": 100112,
      "componentType": 5126,
      "count": 2326,
      "max": [
        1.0,
        0.9520379900932312
      ],
      "min": [
        0.0,
        0.010161995887756348
      ],
      "type": "VEC2"
    },
    {
      "bufferView": 1,
      "byteOffset": 118720,
      "componentType": 5126,
      "count": 2326,
      "max": [
        1.0,
        0.9520379900932312
      ],
      "min": [
        0.0,
        0.010161995887756348
      ],
      "type": "VEC2"
    },
    {
      "bufferView": 1,
      "byteOffset": 137328,
      "componentType": 5126,
      "count": 2326,
      "max": [
        1.0,
        0.9520379900932312
      ],
      "min": [
        0.0,
        0.010161995887756348
      ],
      "type": "VEC2"
    },
    {
      "bufferView": 1,
      "byteOffset": 155936,
      "componentType": 5126,
      "count": 2326,
      "max": [
        1.0,
        0.9520379900932312
      ],
      "min": [
        0.0,
        0.010161995887756348
      ],
      "type": "VEC2"
    },
    {
      "bufferView": 1,
      "byteOffset": 174544,
      "componentType": 5126,
      "count": 2326,
      "max": [
        1.0,
        0.9520379900932312
      ],
      "min": [
        0.0,
        0.010161995887756348
      ],
      "type": "VEC2"
    },
    {
      "bufferView": 1,
      "byteOffset": 193152,
      "componentType": 5126,
      "count": 2326,
      "max": [
        1.0,
        0.9520379900932312
      ],
      "min": [
        0.0,
        0.010161995887756348
      ],
      "type": "VEC2"
    },
    {
      "bufferView": 0,
      "byteOffset": 6720,
      "componentType": 5125,
      "count": 6648,
      "type": "SCALAR"
    }
  ],
  "asset": {
    "extras": {
      "author": "microworksmedia (https://sketchfab.com/microworksmedia)",
      "license": "CC-BY-4.0 (http://creativecommons.org/licenses/by/4.0/)",
      "source": "https://sketchfab.com/3d-models/prada-logo-b142649150f244a7aa38386062048e77",
      "title": "Prada Logo"
    },
    "generator": "Sketchfab-12.67.0",
    "version": "2.0"
  },
  "bufferViews": [
    {
      "buffer": 0,
      "byteLength": 33312,
      "name": "floatBufferViews",
      "target": 34963
    },
    {
      "buffer": 0,
      "byteLength": 211760,
      "byteOffset": 33312,
      "byteStride": 8,
      "name": "floatBufferViews",
      "target": 34962
    },
    {
      "buffer": 0,
      "byteLength": 63528,
      "byteOffset": 245072,
      "byteStride": 12,
      "name": "floatBufferViews",
      "target": 34962
    }
  ],
  "buffers": [
    {
      "byteLength": 308600,
      "uri": "scene.bin"
    }
  ],
  "materials": [
    {
      "doubleSided": true,
      "name": "Mat.1",
      "pbrMetallicRoughness": {
        "baseColorFactor": [
          0.8,
          0.8,
          0.8,
          1.0
        ],
        "metallicFactor": 0.0,
        "roughnessFactor": 0.9468170410305501
      }
    },
    {
      "doubleSided": true,
      "name": "material",
      "pbrMetallicRoughness": {
        "baseColorFactor": [
          0.0,
          0.0,
          0.0,
          1.0
        ],
        "metallicFactor": 0.0,
        "roughnessFactor": 0.9468170410305501
      }
    }
  ],
  "meshes": [
    {
      "name": "Disc_Mat.1_0",
      "primitives": [
        {
          "attributes": {
            "NORMAL": 1,
            "POSITION": 0,
            "TEXCOORD_0": 2,
            "TEXCOORD_1": 3,
            "TEXCOORD_2": 4,
            "TEXCOORD_3": 5,
            "TEXCOORD_4": 6,
            "TEXCOORD_5": 7,
            "TEXCOORD_6": 8,
            "TEXCOORD_7": 9,
            "TEXCOORD_8": 10,
            "TEXCOORD_9": 11
          },
          "indices": 12,
          "material": 0,
          "mode": 4
        }
      ]
    },
    {
      "name": "Prada Logo_Mat_0",
      "primitives": [
        {
          "attributes": {
            "NORMAL": 14,
            "POSITION": 13,
            "TEXCOORD_0": 15,
            "TEXCOORD_1": 16,
            "TEXCOORD_2": 17,
            "TEXCOORD_3": 18,
            "TEXCOORD_4": 19,
            "TEXCOORD_5": 20,
            "TEXCOORD_6": 21,
            "TEXCOORD_7": 22,
            "TEXCOORD_8": 23,
            "TEXCOORD_9": 24
          },
          "indices": 25,
          "material": 1,
          "mode": 4
        }
      ]
    }
  ],
  "nodes": [
    {
      "children": [
        1
      ],
      "matrix": [
        0.06684661656618118,
        0.0,
        0.0,
        0.0,
        0.0,
        1.4842930566012754e-17,
        -0.06684661656618118,
        0.0,
        0.0,
        0.06684661656618118,
        1.4842930566012754e-17,
        0.0,
        0.0,
        0.0,
        0.0,
        1.0
      ],
      "name": "Sketchfab_model"
    },
    {
      "children": [
        2
      ],
      "matrix": [
        1.0,
        0.0,
        0.0,
        0.0,
        0.0,
        0.0,
        1.0,
        0.0,
        0.0,
        -1.0,
        0.0,
        0.0,
        0.0,
        0.0,
        0.0,
        1.0
      ],
      "name": "e4dce9c2962d48e7bd854fc62e557ec7.fbx"
    },
    {
      "children": [
        3,
        5
      ],
      "name": "RootNode"
    },
    {
      "children": [
        4
      ],
      "matrix": [
        1.0,
        0.0,
        0.0,
        0.0,
        0.0,
        1.0,
        0.0,
        0.0,
        0.0,
        0.0,
        1.0,
        0.0,
        29.69293975830078,
        7.0228400230407715,
        2.7755575615628914e-17,
        1.0
      ],
      "name": "Disc"
    },
    {
      "mesh": 0,
      "name": "Disc_Mat.1_0"
    },
    {
      "children": [
        6
      ],
      "matrix": [
        1.0,
        0.0,
        0.0,
        0.0,
        0.0,
        1.0,
        0.0,
        0.0,
        0.0,
        0.0,
        1.0,
        0.0,
        5.519499778747559,
        12.27824592590332,
        0.0,
        1.0
      ],
      "name": "Prada Logo"
    },
    {
      "mesh": 1,
      "name": "Prada Logo_Mat_0"
    }
  ],
  "scene": 0,
  "scenes": [
    {
      "name": "Sketchfab_Scene",
      "nodes": [
        0
      ]
    }
  ]
}
