{
  "accessors": [
    {
      "bufferView": 2,
      "componentType": 5126,
      "count": 5558,
      "max": [
        16.57575225830078,
        142.5491180419922,
        20.948911666870117
      ],
      "min": [
        -16.565141677856445,
        55.20011520385742,
        -11.233823776245117
      ],
      "type": "VEC3"
    },
    {
      "bufferView": 2,
      "byteOffset": 66696,
      "componentType": 5126,
      "count": 5558,
      "max": [
        0.9999663829803467,
        0.998370349407196,
        0.9999992847442627
      ],
      "min": [
        -0.9999571442604065,
        -0.9968793392181396,
        -0.9999992847442627
      ],
      "type": "VEC3"
    },
    {
      "bufferView": 3,
      "componentType": 5126,
      "count": 5558,
      "max": [
        0.9999871850013733,
        0.9868452548980713,
        0.9997355341911316,
        1.0
      ],
      "min": [
        -0.9999884963035583,
        -0.9638311862945557,
        -0.9999504089355469,
        -1.0
      ],
      "type": "VEC4"
    },
    {
      "bufferView": 1,
      "componentType": 5126,
      "count": 5558,
      "max": [
        0.9970904588699341,
        0.9952043890953064
      ],
      "min": [
        0.003723971778526902,
        0.003977164626121521
      ],
      "type": "VEC2"
    },
    {
      "bufferView": 0,
      "componentType": 5125,
      "count": 32370,
      "type": "SCALAR"
    }
  ],
  "asset": {
    "extras": {
      "author": "Toxic (https://sketchfab.com/wutianci)",
      "license": "CC-BY-4.0 (http://creativecommons.org/licenses/by/4.0/)",
      "source": "https://sketchfab.com/3d-models/dress-94fda1c2e0714b878f27f745b2a61c1f",
      "title": "DRESS"
    },
    "generator": "Sketchfab-15.12.0",
    "version": "2.0"
  },
  "bufferViews": [
    {
      "buffer": 0,
      "byteLength": 129480,
      "name": "floatBufferViews",
      "target": 34963
    },
    {
      "buffer": 0,
      "byteLength": 44464,
      "byteOffset": 129480,
      "byteStride": 8,
      "name": "floatBufferViews",
      "target": 34962
    },
    {
      "buffer": 0,
      "byteLength": 133392,
      "byteOffset": 173944,
      "byteStride": 12,
      "name": "floatBufferViews",
      "target": 34962
    },
    {
      "buffer": 0,
      "byteLength": 88928,
      "byteOffset": 307336,
      "byteStride": 16,
      "name": "floatBufferViews",
      "target": 34962
    }
  ],
  "buffers": [
    {
      "byteLength": 396264,
      "uri": "scene.bin"
    }
  ],
  "images": [
    {
      "uri": "textures/Default_Material_baseColor.png"
    },
    {
      "uri": "textures/Default_Material_metallicRoughness.png"
    },
    {
      "uri": "textures/Default_Material_emissive.jpeg"
    },
    {
      "uri": "textures/Default_Material_normal.png"
    }
  ],
  "materials": [
    {
      "alphaMode": "BLEND",
      "emissiveFactor": [
        1.0,
        1.0,
        1.0
      ],
      "emissiveTexture": {
        "index": 2
      },
      "name": "Default_Material",
      "normalTexture": {
        "index": 3
      },
      "pbrMetallicRoughness": {
        "baseColorTexture": {
          "index": 0
        },
        "metallicRoughnessTexture": {
          "index": 1
        }
      }
    }
  ],
  "meshes": [
    {
      "name": "polySurface4_Default_Material_0",
      "primitives": [
        {
          "attributes": {
            "NORMAL": 1,
            "POSITION": 0,
            "TANGENT": 2,
            "TEXCOORD_0": 3
          },
          "indices": 4,
          "material": 0,
          "mode": 4
        }
      ]
    }
  ],
  "nodes": [
    {
      "children": [
        1
      ],
      "matrix": [
        1.0,
        0.0,
        0.0,
        0.0,
        0.0,
        -1.0,
        0.0,
        0.0,
        0.0,
        0.0,
        -1.0,
        0.0,
        0.0,
        0.0,
        0.0,
        1.0
      ],
      "name": "Sketchfab_model"
    },
    {
      "children": [
        2
      ],
      "matrix": [
        0.009999999776482582,
        0.0,
        0.0,
        0.0,
        0.0,
        -0.009999999776482582,
        0.0,
        0.0,
        0.0,
        0.0,
        -0.009999999776482582,
        0.0,
        0.0,
        0.0,
        0.0,
        1.0
      ],
      "name": "bc385f0e689d4061b30e614dbda139cc.fbx"
    },
    {
      "children": [
        3
      ],
      "name": "RootNode"
    },
    {
      "children": [
        4
      ],
      "name": "polySurface4"
    },
    {
      "mesh": 0,
      "name": "polySurface4_Default_Material_0"
    }
  ],
  "samplers": [
    {
      "magFilter": 9729,
      "minFilter": 9987,
      "wrapS": 10497,
      "wrapT": 10497
    }
  ],
  "scene": 0,
  "scenes": [
    {
      "name": "Sketchfab_Scene",
      "nodes": [
        0
      ]
    }
  ],
  "textures": [
    {
      "sampler": 0,
      "source": 0
    },
    {
      "sampler": 0,
      "source": 1
    },
    {
      "sampler": 0,
      "source": 2
    },
    {
      "sampler": 0,
      "source": 3
    }
  ]
}
