{
  "accessors": [
    {
      "bufferView": 2,
      "componentType": 5126,
      "count": 17433,
      "max": [
        9.547670364379883,
        34.29103088378906,
        27.24803924560547
      ],
      "min": [
        -10.557513236999512,
        -15.0986967086792,
        -27.016067504882813
      ],
      "type": "VEC3"
    },
    {
      "bufferView": 2,
      "byteOffset": 209196,
      "componentType": 5126,
      "count": 17433,
      "max": [
        0.9999694228172302,
        0.9999865293502808,
        0.9999762177467346
      ],
      "min": [
        -0.99990314245224,
        -1.0,
        -0.9999302625656128
      ],
      "type": "VEC3"
    },
    {
      "bufferView": 1,
      "componentType": 5126,
      "count": 17433,
      "max": [
        5.429608345031738,
        5.926410675048828
      ],
      "min": [
        -4.429608345031738,
        -4.926410675048828
      ],
      "type": "VEC2"
    },
    {
      "bufferView": 0,
      "componentType": 5125,
      "count": 81276,
      "type": "SCALAR"
    },
    {
      "bufferView": 2,
      "byteOffset": 418392,
      "componentType": 5126,
      "count": 671,
      "max": [
        0.7669353485107422,
        0.39205336570739746,
        0.10000000149011612
      ],
      "min": [
        -0.7669353485107422,
        -0.3554714024066925,
        0.0
      ],
      "type": "VEC3"
    },
    {
      "bufferView": 2,
      "byteOffset": 426444,
      "componentType": 5126,
      "count": 671,
      "max": [
        0.9971343874931335,
        0.9989264607429504,
        1.0
      ],
      "min": [
        -0.9971275329589844,
        -0.9974483847618103,
        -1.0
      ],
      "type": "VEC3"
    },
    {
      "bufferView": 1,
      "byteOffset": 139464,
      "componentType": 5126,
      "count": 671,
      "max": [
        0.9953128099441528,
        0.9757086038589478
      ],
      "min": [
        0.004687219858169556,
        0.024286538362503052
      ],
      "type": "VEC2"
    },
    {
      "bufferView": 0,
      "byteOffset": 325104,
      "componentType": 5125,
      "count": 852,
      "type": "SCALAR"
    },
    {
      "bufferView": 2,
      "byteOffset": 434496,
      "componentType": 5126,
      "count": 65532,
      "max": [
        4.184925556182861,
        15.904605865478516,
        26.17818832397461
      ],
      "min": [
        -4.899165153503418,
        6.873446941375732,
        -26.09084701538086
      ],
      "type": "VEC3"
    },
    {
      "bufferView": 2,
      "byteOffset": 1220880,
      "componentType": 5126,
      "count": 65532,
      "max": [
        1.0,
        1.0,
        1.0
      ],
      "min": [
        -1.0,
        -1.0,
        -1.0
      ],
      "type": "VEC3"
    },
    {
      "bufferView": 1,
      "byteOffset": 144832,
      "componentType": 5126,
      "count": 65532,
      "max": [
        1.0,
        1.0
      ],
      "min": [
        0.0,
        0.0
      ],
      "type": "VEC2"
    },
    {
      "bufferView": 0,
      "byteOffset": 328512,
      "componentType": 5125,
      "count": 323031,
      "type": "SCALAR"
    },
    {
      "bufferView": 2,
      "byteOffset": 2007264,
      "componentType": 5126,
      "count": 65532,
      "max": [
        0.7067710757255554,
        15.099498748779297,
        22.392131805419922
      ],
      "min": [
        -0.9074451923370361,
        14.568222045898438,
        -20.662639617919922
      ],
      "type": "VEC3"
    },
    {
      "bufferView": 2,
      "byteOffset": 2793648,
      "componentType": 5126,
      "count": 65532,
      "max": [
        1.0,
        1.0,
        1.0
      ],
      "min": [
        -1.0,
        -1.0,
        -1.0
      ],
      "type": "VEC3"
    },
    {
      "bufferView": 1,
      "byteOffset": 669088,
      "componentType": 5126,
      "count": 65532,
      "max": [
        0.65625,
        1.0
      ],
      "min": [
        0.34375,
        1.4901161193847656e-08
      ],
      "type": "VEC2"
    },
    {
      "bufferView": 0,
      "byteOffset": 1620636,
      "componentType": 5125,
      "count": 341631,
      "type": "SCALAR"
    },
    {
      "bufferView": 2,
      "byteOffset": 3580032,
      "componentType": 5126,
      "count": 7420,
      "max": [
        0.696033239364624,
        15.033879280090332,
        -15.037190437316895
      ],
      "min": [
        -0.8772730231285095,
        14.714818000793457,
        -22.8349666595459
      ],
      "type": "VEC3"
    },
    {
      "bufferView": 2,
      "byteOffset": 3669072,
      "componentType": 5126,
      "count": 7420,
      "max": [
        1.0,
        1.0,
        1.0
      ],
      "min": [
        -1.0,
        -1.0,
        -1.0
      ],
      "type": "VEC3"
    },
    {
      "bufferView": 1,
      "byteOffset": 1193344,
      "componentType": 5126,
      "count": 7420,
      "max": [
        0.65625,
        1.0
      ],
      "min": [
        0.34375,
        1.4901161193847656e-08
      ],
      "type": "VEC2"
    },
    {
      "bufferView": 0,
      "byteOffset": 2987160,
      "componentType": 5125,
      "count": 38454,
      "type": "SCALAR"
    }
  ],
  "asset": {
    "extras": {
      "author": "Carlos.Maciel (https://sketchfab.com/Carlos.Maciel)",
      "license": "CC-BY-4.0 (http://creativecommons.org/licenses/by/4.0/)",
      "source": "https://sketchfab.com/3d-models/prada-bag-b24f1980dea749f59eb8ace6946393ad",
      "title": "Prada Bag"
    },
    "generator": "Sketchfab-12.63.0",
    "version": "2.0"
  },
  "bufferViews": [
    {
      "buffer": 0,
      "byteLength": 3140976,
      "name": "floatBufferViews",
      "target": 34963
    },
    {
      "buffer": 0,
      "byteLength": 1252704,
      "byteOffset": 3140976,
      "byteStride": 8,
      "name": "floatBufferViews",
      "target": 34962
    },
    {
      "buffer": 0,
      "byteLength": 3758112,
      "byteOffset": 4393680,
      "byteStride": 12,
      "name": "floatBufferViews",
      "target": 34962
    }
  ],
  "buffers": [
    {
      "byteLength": 8151792,
      "uri": "scene.bin"
    }
  ],
  "images": [
    {
      "uri": "textures/03_-_Default_baseColor.jpeg"
    }
  ],
  "materials": [
    {
      "doubleSided": true,
      "name": "Leather_B01_Black_25cm",
      "pbrMetallicRoughness": {
        "baseColorFactor": [
          0.05212488930149486,
          0.01836051884486672,
          0.01836051884486672,
          1.0
        ],
        "metallicFactor": 0.0,
        "roughnessFactor": 0.6
      }
    },
    {
      "doubleSided": true,
      "name": "03_-_Default",
      "pbrMetallicRoughness": {
        "baseColorTexture": {
          "index": 0
        },
        "metallicFactor": 0.0,
        "roughnessFactor": 0.6
      }
    },
    {
      "doubleSided": true,
      "name": "Gold_Blurry",
      "pbrMetallicRoughness": {
        "baseColorFactor": [
          0.7511371806237102,
          0.6734843485038278,
          0.24327514800425346,
          1.0
        ],
        "metallicFactor": 0.9484893453944411,
        "roughnessFactor": 0.47507921441763823
      }
    }
  ],
  "meshes": [
    {
      "name": "polySurface340_Leather_B01_Black_25cm_0",
      "primitives": [
        {
          "attributes": {
            "NORMAL": 1,
            "POSITION": 0,
            "TEXCOORD_0": 2
          },
          "indices": 3,
          "material": 0,
          "mode": 4
        }
      ]
    },
    {
      "name": "Rectangle03_03 - Default_0",
      "primitives": [
        {
          "attributes": {
            "NORMAL": 5,
            "POSITION": 4,
            "TEXCOORD_0": 6
          },
          "indices": 7,
          "material": 1,
          "mode": 4
        }
      ]
    },
    {
      "name": "Object02_Gold_Blurry_0",
      "primitives": [
        {
          "attributes": {
            "NORMAL": 9,
            "POSITION": 8,
            "TEXCOORD_0": 10
          },
          "indices": 11,
          "material": 2,
          "mode": 4
        }
      ]
    },
    {
      "name": "Object02_Gold_Blurry_0",
      "primitives": [
        {
          "attributes": {
            "NORMAL": 13,
            "POSITION": 12,
            "TEXCOORD_0": 14
          },
          "indices": 15,
          "material": 2,
          "mode": 4
        }
      ]
    },
    {
      "name": "Object02_Gold_Blurry_0",
      "primitives": [
        {
          "attributes": {
            "NORMAL": 17,
            "POSITION": 16,
            "TEXCOORD_0": 18
          },
          "indices": 19,
          "material": 2,
          "mode": 4
        }
      ]
    }
  ],
  "nodes": [
    {
      "children": [
        1
      ],
      "matrix": [
        1.0,
        0.0,
        0.0,
        0.0,
        0.0,
        2.220446049250313e-16,
        -1.0,
        0.0,
        0.0,
        1.0,
        2.220446049250313e-16,
        0.0,
        0.0,
        0.0,
        0.0,
        1.0
      ],
      "name": "Sketchfab_model"
    },
    {
      "children": [
        2
      ],
      "matrix": [
        0.009999999776482582,
        0.0,
        0.0,
        0.0,
        0.0,
        0.0,
        0.009999999776482582,
        0.0,
        0.0,
        -0.009999999776482582,
        0.0,
        0.0,
        0.0,
        0.0,
        0.0,
        1.0
      ],
      "name": "747f6a203fc94a43b3f9351a7a458134.fbx"
    },
    {
      "children": [
        3,
        5,
        7
      ],
      "name": "RootNode"
    },
    {
      "children": [
        4
      ],
      "matrix": [
        4.8568343388953925e-08,
        0.0,
        0.24944299459456923,
        0.0,
        -1.0903499189143612e-08,
        0.24944299459457372,
        2.1229896379997275e-15,
        0.0,
        -0.249442994594569,
        -1.0903499189143819e-08,
        4.8568343388953925e-08,
        0.0,
        -19.970932006835938,
        3.9917502403259277,
        -6.452362060546875,
        1.0
      ],
      "name": "polySurface340"
    },
    {
      "mesh": 0,
      "name": "polySurface340_Leather_B01_Black_25cm_0"
    },
    {
      "children": [
        6
      ],
      "matrix": [
        0.7010550157047705,
        0.013277203918486809,
        0.01793216877534078,
        0.0,
        -0.009472303858503402,
        0.8050541422721892,
        -0.22575417021803906,
        0.0,
        -0.005800624919636111,
        0.052602389576768285,
        0.18782694850352988,
        0.0,
        -19.974328994750977,
        6.549192905426025,
        -5.716846942901611,
        1.0
      ],
      "name": "Rectangle03"
    },
    {
      "mesh": 1,
      "name": "Rectangle03_03 - Default_0"
    },
    {
      "children": [
        8,
        9,
        10
      ],
      "matrix": [
        7.83042673026978e-08,
        8.253376362632051e-25,
        0.2494429945945617,
        0.0,
        -1.0903499189143288e-08,
        0.24944299459457372,
        3.422788106881606e-15,
        0.0,
        -0.24944299459456148,
        -1.0903499189143824e-08,
        7.83042673026978e-08,
        0.0,
        -19.970932006835938,
        3.9917502403259277,
        -6.452362060546875,
        1.0
      ],
      "name": "Object02"
    },
    {
      "mesh": 2,
      "name": "Object02_Gold_Blurry_0"
    },
    {
      "mesh": 3,
      "name": "Object02_Gold_Blurry_0"
    },
    {
      "mesh": 4,
      "name": "Object02_Gold_Blurry_0"
    }
  ],
  "samplers": [
    {
      "magFilter": 9729,
      "minFilter": 9987,
      "wrapS": 10497,
      "wrapT": 10497
    }
  ],
  "scene": 0,
  "scenes": [
    {
      "name": "Sketchfab_Scene",
      "nodes": [
        0
      ]
    }
  ],
  "textures": [
    {
      "sampler": 0,
      "source": 0
    }
  ]
}
