{
  "accessors": [
    {
      "bufferView": 2,
      "componentType": 5126,
      "count": 65532,
      "max": [
        1967.384765625,
        4005.736328125,
        1054.448974609375
      ],
      "min": [
        -1967.384765625,
        -4005.734375,
        -518.812255859375
      ],
      "type": "VEC3"
    },
    {
      "bufferView": 2,
      "byteOffset": 786384,
      "componentType": 5126,
      "count": 65532,
      "max": [
        1.0,
        1.0,
        1.0
      ],
      "min": [
        -1.0,
        -1.0,
        -1.0
      ],
      "type": "VEC3"
    },
    {
      "bufferView": 1,
      "componentType": 5126,
      "count": 65532,
      "max": [
        1.0000076293945313,
        1.000000238418579
      ],
      "min": [
        -1.9073486328125e-06,
        0.0
      ],
      "type": "VEC2"
    },
    {
      "bufferView": 0,
      "componentType": 5125,
      "count": 71760,
      "type": "SCALAR"
    },
    {
      "bufferView": 2,
      "byteOffset": 1572768,
      "componentType": 5126,
      "count": 65534,
      "max": [
        1967.384765625,
        4005.736328125,
        650.1614990234375
      ],
      "min": [
        -1967.384765625,
        -3579.205078125,
        -518.812255859375
      ],
      "type": "VEC3"
    },
    {
      "bufferView": 2,
      "byteOffset": 2359176,
      "componentType": 5126,
      "count": 65534,
      "max": [
        0.9999910593032837,
        0.9999724626541138,
        1.0
      ],
      "min": [
        -0.9999901652336121,
        -0.9999898672103882,
        -1.0
      ],
      "type": "VEC3"
    },
    {
      "bufferView": 1,
      "byteOffset": 524256,
      "componentType": 5126,
      "count": 65534,
      "max": [
        1.0,
        1.0000038146972656
      ],
      "min": [
        0.0,
        0.0
      ],
      "type": "VEC2"
    },
    {
      "bufferView": 0,
      "byteOffset": 287040,
      "componentType": 5125,
      "count": 65772,
      "type": "SCALAR"
    },
    {
      "bufferView": 2,
      "byteOffset": 3145584,
      "componentType": 5126,
      "count": 51305,
      "max": [
        2603.5,
        4641.849609375,
        1077.940673828125
      ],
      "min": [
        -2603.5,
        -4641.849609375,
        -1077.940673828125
      ],
      "type": "VEC3"
    },
    {
      "bufferView": 2,
      "byteOffset": 3761244,
      "componentType": 5126,
      "count": 51305,
      "max": [
        1.0,
        1.0,
        1.0
      ],
      "min": [
        -1.0,
        -1.0,
        -1.0
      ],
      "type": "VEC3"
    },
    {
      "bufferView": 1,
      "byteOffset": 1048528,
      "componentType": 5126,
      "count": 51305,
      "max": [
        1.0000009536743164,
        1.000244140625
      ],
      "min": [
        -7.62939453125e-06,
        0.0
      ],
      "type": "VEC2"
    },
    {
      "bufferView": 0,
      "byteOffset": 550128,
      "componentType": 5125,
      "count": 67932,
      "type": "SCALAR"
    },
    {
      "bufferView": 2,
      "byteOffset": 4376904,
      "componentType": 5126,
      "count": 184,
      "max": [
        1932.9490966796875,
        3971.301025390625,
        651.3834228515625
      ],
      "min": [
        -1932.9500732421875,
        -3971.300048828125,
        -651.3833618164063
      ],
      "type": "VEC3"
    },
    {
      "bufferView": 2,
      "byteOffset": 4379112,
      "componentType": 5126,
      "count": 184,
      "max": [
        1.0,
        1.0,
        0.9982060790061951
      ],
      "min": [
        -1.0,
        -1.0,
        -0.9982061386108398
      ],
      "type": "VEC3"
    },
    {
      "bufferView": 0,
      "byteOffset": 821856,
      "componentType": 5125,
      "count": 864,
      "type": "SCALAR"
    }
  ],
  "asset": {
    "extras": {
      "author": "mabusamra2 (https://sketchfab.com/mabusamra2)",
      "license": "CC-BY-4.0 (http://creativecommons.org/licenses/by/4.0/)",
      "source": "https://sketchfab.com/3d-models/master-ceiling-fbx-2c3ec82d55b14455a958b4e889ea4931",
      "title": "MASTER CEILING FBX"
    },
    "generator": "Sketchfab-12.68.0",
    "version": "2.0"
  },
  "bufferViews": [
    {
      "buffer": 0,
      "byteLength": 825312,
      "name": "floatBufferViews",
      "target": 34963
    },
    {
      "buffer": 0,
      "byteLength": 1458968,
      "byteOffset": 825312,
      "byteStride": 8,
      "name": "floatBufferViews",
      "target": 34962
    },
    {
      "buffer": 0,
      "byteLength": 4381320,
      "byteOffset": 2284280,
      "byteStride": 12,
      "name": "floatBufferViews",
      "target": 34962
    }
  ],
  "buffers": [
    {
      "byteLength": 6665600,
      "uri": "scene.bin"
    }
  ],
  "extensionsRequired": [
    "KHR_materials_pbrSpecularGlossiness"
  ],
  "extensionsUsed": [
    "KHR_materials_pbrSpecularGlossiness"
  ],
  "materials": [
    {
      "doubleSided": true,
      "extensions": {
        "KHR_materials_pbrSpecularGlossiness": {
          "diffuseFactor": [
            0.6281055094861525,
            0.6281055094861525,
            0.6281055094861525,
            1.0
          ],
          "glossinessFactor": 0.4,
          "specularFactor": [
            0.0,
            0.0,
            0.0
          ]
        }
      },
      "name": "16_-_Default"
    },
    {
      "doubleSided": true,
      "emissiveFactor": [
        1.0,
        1.0,
        0.739219882241731
      ],
      "extensions": {
        "KHR_materials_pbrSpecularGlossiness": {
          "diffuseFactor": [
            0.7409556523337896,
            0.4255302497856245,
            0.03239432007259476,
            1.0
          ],
          "glossinessFactor": 0.5301166177212726,
          "specularFactor": [
            0.0,
            0.0,
            0.0
          ]
        }
      },
      "name": "12_-_Car_Paint"
    }
  ],
  "meshes": [
    {
      "name": "Layer:0_16 - Default_0",
      "primitives": [
        {
          "attributes": {
            "NORMAL": 1,
            "POSITION": 0,
            "TEXCOORD_0": 2
          },
          "indices": 3,
          "material": 0,
          "mode": 4
        }
      ]
    },
    {
      "name": "Layer:0_16 - Default_0",
      "primitives": [
        {
          "attributes": {
            "NORMAL": 5,
            "POSITION": 4,
            "TEXCOORD_0": 6
          },
          "indices": 7,
          "material": 0,
          "mode": 4
        }
      ]
    },
    {
      "name": "Layer:0_16 - Default_0",
      "primitives": [
        {
          "attributes": {
            "NORMAL": 9,
            "POSITION": 8,
            "TEXCOORD_0": 10
          },
          "indices": 11,
          "material": 0,
          "mode": 4
        }
      ]
    },
    {
      "name": "Layer:vray light_12 - Car Paint_0",
      "primitives": [
        {
          "attributes": {
            "NORMAL": 13,
            "POSITION": 12
          },
          "indices": 14,
          "material": 1,
          "mode": 4
        }
      ]
    }
  ],
  "nodes": [
    {
      "children": [
        1
      ],
      "matrix": [
        1.0,
        0.0,
        0.0,
        0.0,
        0.0,
        2.220446049250313e-16,
        -1.0,
        0.0,
        0.0,
        1.0,
        2.220446049250313e-16,
        0.0,
        0.0,
        0.0,
        0.0,
        1.0
      ],
      "name": "Sketchfab_model"
    },
    {
      "children": [
        2
      ],
      "matrix": [
        1.0,
        0.0,
        0.0,
        0.0,
        0.0,
        0.0,
        1.0,
        0.0,
        0.0,
        -1.0,
        0.0,
        0.0,
        0.0,
        0.0,
        0.0,
        1.0
      ],
      "name": "8a17062ea133469f90cf360c492758a6.fbx"
    },
    {
      "children": [
        3
      ],
      "name": "RootNode"
    },
    {
      "children": [
        4,
        8
      ],
      "matrix": [
        1.0,
        0.0,
        0.0,
        0.0,
        0.0,
        2.220446049250313e-16,
        -1.0,
        0.0,
        0.0,
        1.0,
        2.220446049250313e-16,
        0.0,
        0.0,
        0.0,
        0.0,
        1.0
      ],
      "name": "MASTER CEILING TEST.dwg"
    },
    {
      "children": [
        5,
        6,
        7
      ],
      "matrix": [
        1.0,
        0.0,
        0.0,
        0.0,
        0.0,
        1.0,
        0.0,
        0.0,
        0.0,
        0.0,
        1.0,
        0.0,
        16475.0859375,
        15513.849609375,
        1077.940673828125,
        1.0
      ],
      "name": "Layer:0"
    },
    {
      "mesh": 0,
      "name": "Layer:0_16 - Default_0"
    },
    {
      "mesh": 1,
      "name": "Layer:0_16 - Default_0"
    },
    {
      "mesh": 2,
      "name": "Layer:0_16 - Default_0"
    },
    {
      "children": [
        9
      ],
      "matrix": [
        1.0,
        0.0,
        0.0,
        0.0,
        0.0,
        1.0,
        0.0,
        0.0,
        0.0,
        0.0,
        1.0,
        0.0,
        16475.0859375,
        15513.849609375,
        1228.933349609375,
        1.0
      ],
      "name": "Layer:vray light"
    },
    {
      "mesh": 3,
      "name": "Layer:vray light_12 - Car Paint_0"
    }
  ],
  "scene": 0,
  "scenes": [
    {
      "name": "Sketchfab_Scene",
      "nodes": [
        0
      ]
    }
  ]
}
